<?xml version="1.0" standalone="no"?>
<!DOCTYPE svg PUBLIC "-//W3C//DTD SVG 20010904//EN"
 "http://www.w3.org/TR/2001/REC-SVG-20010904/DTD/svg10.dtd">
<svg version="1.0" xmlns="http://www.w3.org/2000/svg"
 width="200.000000pt" height="200.000000pt" viewBox="0 0 200.000000 200.000000"
 preserveAspectRatio="xMidYMid meet">

<g transform="translate(0.000000,200.000000) scale(0.100000,-0.100000)"
fill="#000000" stroke="none">
<path d="M680 1251 c-189 -58 -252 -289 -117 -429 161 -168 441 -55 441 178 0
170 -166 299 -324 251z m-5 -191 c25 -72 26 -72 56 28 17 57 37 55 41 -5 3
-43 5 -46 30 -48 33 -1 64 -28 53 -45 -6 -9 -12 -7 -24 9 -11 14 -23 20 -34
15 -28 -11 -19 -38 21 -59 62 -33 53 -95 -14 -95 -24 0 -37 6 -44 21 -15 26
-3 40 14 16 18 -23 56 -23 56 2 0 23 -16 37 -52 46 -25 6 -27 11 -30 63 l-3
57 -19 -58 c-11 -31 -24 -56 -30 -54 -5 2 -17 25 -27 53 l-17 49 -3 -50 c-6
-80 -24 -53 -27 41 -2 76 -1 85 14 82 11 -2 25 -26 39 -68z"/>
</g>
</svg>
